<svg width="265" height="208" viewBox="0 0 265 208" fill="none" xmlns="http://www.w3.org/2000/svg">
<path fill-rule="evenodd" clip-rule="evenodd" d="M196.056 157.566C197.071 155.819 198.802 155.014 201.592 155.014V159.697C197.821 159.697 197.079 160.039 196.056 160.821V185.82H188.892V155.261H196.056V157.566Z" fill="black"/>
<path fill-rule="evenodd" clip-rule="evenodd" d="M151.186 159.919H149.346V154.546H151.186V149.839H158.35V154.546H161.668V159.919H158.35V179.773H158.355H158.368H158.382H158.395H158.409H158.422H158.436H158.449H158.462H158.476H158.489H158.502H158.516H158.529H158.542H158.555H158.568H158.581H158.594H158.607H158.62H158.633H158.646H158.659H158.672H158.685H158.698H158.71H158.723H158.736H158.749H158.761H158.774H158.786H158.799H158.811H158.824H158.836H158.849H158.861H158.874H158.886H158.898H158.911H158.923H158.935H158.947H158.959H158.971H158.984H158.996H159.008H159.02H159.032H159.044H159.055H159.067H159.079H159.091H159.103H159.115H159.126H159.138H159.15H159.161H159.173H159.185H159.196H159.208H159.219H159.231H159.242H159.253H159.265H159.276H159.287H159.299H159.31H159.321H159.332H159.344H159.355H159.366H159.377H159.388H159.399H159.41H159.421H159.432H159.443H159.454H159.464H159.475H159.486H159.497H159.507H159.518H159.529H159.539H159.55H159.561H159.571H159.582H159.592H159.603H159.613H159.623H159.634H159.644H159.654H159.665H159.675H159.685H159.695H159.706H159.716H159.726H159.736H159.746H159.756H159.766H159.776H159.786H159.796H159.806H159.815H159.825H159.835H159.845H159.855H159.864H159.874H159.884H159.893H159.903H159.912H159.922H159.931H159.941H159.95H159.96H159.969H159.979H159.988H159.997H160.006H160.016H160.025H160.034H160.043H160.052H160.062H160.071H160.08H160.089H160.098H160.107H160.116H160.125H160.133H160.142H160.151H160.16H160.169H160.177H160.186H160.195H160.204H160.212H160.221H160.229H160.238H160.246H160.255H160.263H160.272H160.28H160.289H160.297H160.305H160.314H160.322H160.33H160.339H160.347H160.355H160.363H160.371H160.379H160.387H160.395H160.403H160.411H160.419H160.427H160.435H160.443H160.451H160.459H160.466H160.474H160.482H160.49H160.497H160.505H160.513H160.52H160.528H160.535H160.543H160.55H160.558H160.565H160.573H160.58H160.588H160.595H160.602H160.61H160.617H160.624H160.631H160.638H160.646H160.653H160.66H160.667H160.674H160.681H160.688H160.695H160.702H160.709H160.716H160.723H160.729H160.736H160.743H160.75H160.757H160.763H160.77H160.777H160.783H160.79H160.797H160.803H160.81H160.816H160.823H160.829H160.836H160.842H160.848H160.855H160.861H160.867H160.874H160.88H160.886H160.892H160.898H160.905H160.911H160.917H160.923H160.929H160.935H160.941H160.947H160.953H160.959H160.965H160.971H160.976H160.982H160.988H160.994H161H161.005H161.011H161.017H161.022H161.028H161.034H161.039H161.045H161.05H161.056H161.061H161.067H161.072H161.078H161.083H161.088H161.094H161.099H161.104H161.109H161.115H161.12H161.125H161.13H161.135H161.141H161.146H161.151H161.156H161.161H161.166H161.171H161.176H161.181H161.185H161.19H161.195H161.2H161.205H161.21H161.214H161.219H161.224H161.228H161.233H161.238H161.242H161.247H161.251H161.256H161.261H161.265H161.269H161.274H161.278H161.283H161.287H161.291H161.296H161.3H161.304H161.309H161.313H161.317H161.321H161.325H161.33H161.334H161.338H161.342H161.346H161.35H161.354H161.358H161.362H161.366H161.37H161.373H161.377H161.381H161.385H161.389H161.393H161.396H161.4H161.404H161.407H161.411H161.415H161.418H161.422H161.425H161.429H161.432H161.436H161.439H161.443H161.446H161.45H161.453H161.456H161.46H161.463H161.466H161.47H161.473H161.476H161.479H161.483H161.486H161.489H161.492H161.495H161.498H161.501H161.504H161.507H161.51H161.513H161.516H161.519H161.522H161.525H161.528H161.53H161.533H161.536H161.539H161.541H161.544H161.547H161.55H161.552H161.555H161.557H161.56H161.563H161.565H161.568H161.57H161.573H161.575H161.578H161.58H161.582H161.585H161.587H161.589H161.592H161.594H161.596H161.598H161.601H161.603H161.605H161.607H161.609H161.612H161.614H161.616H161.618H161.62H161.622H161.624H161.626H161.628H161.63H161.632H161.633H161.635H161.637H161.639H161.641H161.643H161.644H161.646H161.648H161.649H161.651H161.653H161.654H161.656H161.658H161.659H161.661H161.662H161.664H161.665H161.667H161.668V186.938H161.667H161.665H161.664H161.662H161.661H161.659H161.658H161.656H161.654H161.653H161.651H161.649H161.648H161.646H161.644H161.643H161.641H161.639H161.637H161.635H161.633H161.632H161.63H161.628H161.626H161.624H161.622H161.62H161.618H161.616H161.614H161.612H161.609H161.607H161.605H161.603H161.601H161.598H161.596H161.594H161.592H161.589H161.587H161.585H161.582H161.58H161.578H161.575H161.573H161.57H161.568H161.565H161.563H161.56H161.557H161.555H161.552H161.55H161.547H161.544H161.541H161.539H161.536H161.533H161.53H161.528H161.525H161.522H161.519H161.516H161.513H161.51H161.507H161.504H161.501H161.498H161.495H161.492H161.489H161.486H161.483H161.479H161.476H161.473H161.47H161.466H161.463H161.46H161.456H161.453H161.45H161.446H161.443H161.439H161.436H161.432H161.429H161.425H161.422H161.418H161.415H161.411H161.407H161.404H161.4H161.396H161.393H161.389H161.385H161.381H161.377H161.373H161.37H161.366H161.362H161.358H161.354H161.35H161.346H161.342H161.338H161.334H161.33H161.325H161.321H161.317H161.313H161.309H161.304H161.3H161.296H161.291H161.287H161.283H161.278H161.274H161.269H161.265H161.261H161.256H161.251H161.247H161.242H161.238H161.233H161.228H161.224H161.219H161.214H161.21H161.205H161.2H161.195H161.19H161.185H161.181H161.176H161.171H161.166H161.161H161.156H161.151H161.146H161.141H161.135H161.13H161.125H161.12H161.115H161.109H161.104H161.099H161.094H161.088H161.083H161.078H161.072H161.067H161.061H161.056H161.05H161.045H161.039H161.034H161.028H161.022H161.017H161.011H161.005H161H160.994H160.988H160.982H160.976H160.971H160.965H160.959H160.953H160.947H160.941H160.935H160.929H160.923H160.917H160.911H160.905H160.898H160.892H160.886H160.88H160.874H160.867H160.861H160.855H160.848H160.842H160.836H160.829H160.823H160.816H160.81H160.803H160.797H160.79H160.783H160.777H160.77H160.763H160.757H160.75H160.743H160.736H160.729H160.723H160.716H160.709H160.702H160.695H160.688H160.681H160.674H160.667H160.66H160.653H160.646H160.638H160.631H160.624H160.617H160.61H160.602H160.595H160.588H160.58H160.573H160.565H160.558H160.55H160.543H160.535H160.528H160.52H160.513H160.505H160.497H160.49H160.482H160.474H160.466H160.459H160.451H160.443H160.435H160.427H160.419H160.411H160.403H160.395H160.387H160.379H160.371H160.363H160.355H160.347H160.339H160.33H160.322H160.314H160.305H160.297H160.289H160.28H160.272H160.263H160.255H160.246H160.238H160.229H160.221H160.212H160.204H160.195H160.186H160.177H160.169H160.16H160.151H160.142H160.133H160.125H160.116H160.107H160.098H160.089H160.08H160.071H160.062H160.052H160.043H160.034H160.025H160.016H160.006H159.997H159.988H159.979H159.969H159.96H159.95H159.941H159.931H159.922H159.912H159.903H159.893H159.884H159.874H159.864H159.855H159.845H159.835H159.825H159.815H159.806H159.796H159.786H159.776H159.766H159.756H159.746H159.736H159.726H159.716H159.706H159.695H159.685H159.675H159.665H159.654H159.644H159.634H159.623H159.613H159.603H159.592H159.582H159.571H159.561H159.55H159.539H159.529H159.518H159.507H159.497H159.486H159.475H159.464H159.454H159.443H159.432H159.421H159.41H159.399H159.388H159.377H159.366H159.355H159.344H159.332H159.321H159.31H159.299H159.287H159.276H159.265H159.253H159.242H159.231H159.219H159.208H159.196H159.185H159.173H159.161H159.15H159.138H159.126H159.115H159.103H159.091H159.079H159.067H159.055H159.044H159.032H159.02H159.008H158.996H158.984H158.971H158.959H158.947H158.935H158.923H158.911H158.898H158.886H158.874H158.861H158.849H158.836H158.824H158.811H158.799H158.786H158.774H158.761H158.749H158.736H158.723H158.71H158.698H158.685H158.672H158.659H158.646H158.633H158.62H158.607H158.594H158.581H158.568H158.555H158.542H158.529H158.516H158.502H158.489H158.476H158.462H158.449H158.436H158.422H158.409H158.395H158.382H158.368H158.355H158.341H158.327H158.314H158.3H158.286H158.272H158.259H158.245H158.231H158.217H158.203H158.189H158.175H158.161H158.147H158.133H158.119H158.105H158.09H158.076H158.062H158.048H158.033H158.019H158.005H157.99H157.976H157.961H157.947H157.932H157.918H157.903H157.888H157.874H157.859H157.844H157.829H157.815H157.8H157.785H157.77H157.755H157.74H157.725C155.94 186.938 154.076 186.512 152.716 185.112C151.357 183.713 151.186 182.04 151.186 181.138V181.137V159.919ZM157.284 179.741C157.285 179.74 157.29 179.742 157.3 179.744C157.289 179.742 157.284 179.741 157.284 179.741ZM158.35 181.146C158.35 181.146 158.35 181.143 158.35 181.137V181.137C158.35 181.143 158.35 181.145 158.35 181.146Z" fill="black"/>
<path fill-rule="evenodd" clip-rule="evenodd" d="M204.418 159.919H202.578V154.546H204.418V149.839H211.582V154.546H214.9V159.919H211.582V179.773H211.587H211.6H211.614H211.627H211.641H211.654H211.668H211.681H211.695H211.708H211.721H211.735H211.748H211.761H211.774H211.787H211.8H211.813H211.827H211.84H211.853H211.865H211.878H211.891H211.904H211.917H211.93H211.943H211.955H211.968H211.981H211.993H212.006H212.019H212.031H212.044H212.056H212.069H212.081H212.093H212.106H212.118H212.13H212.143H212.155H212.167H212.179H212.192H212.204H212.216H212.228H212.24H212.252H212.264H212.276H212.288H212.3H212.311H212.323H212.335H212.347H212.359H212.37H212.382H212.394H212.405H212.417H212.428H212.44H212.451H212.463H212.474H212.486H212.497H212.508H212.52H212.531H212.542H212.553H212.565H212.576H212.587H212.598H212.609H212.62H212.631H212.642H212.653H212.664H212.675H212.686H212.697H212.707H212.718H212.729H212.74H212.75H212.761H212.772H212.782H212.793H212.803H212.814H212.824H212.835H212.845H212.856H212.866H212.876H212.887H212.897H212.907H212.917H212.928H212.938H212.948H212.958H212.968H212.978H212.988H212.998H213.008H213.018H213.028H213.038H213.048H213.057H213.067H213.077H213.087H213.096H213.106H213.116H213.125H213.135H213.145H213.154H213.164H213.173H213.183H213.192H213.201H213.211H213.22H213.229H213.239H213.248H213.257H213.266H213.275H213.285H213.294H213.303H213.312H213.321H213.33H213.339H213.348H213.357H213.366H213.375H213.383H213.392H213.401H213.41H213.418H213.427H213.436H213.444H213.453H213.462H213.47H213.479H213.487H213.496H213.504H213.513H213.521H213.529H213.538H213.546H213.554H213.562H213.571H213.579H213.587H213.595H213.603H213.611H213.62H213.628H213.636H213.644H213.652H213.659H213.667H213.675H213.683H213.691H213.699H213.706H213.714H213.722H213.73H213.737H213.745H213.753H213.76H213.768H213.775H213.783H213.79H213.798H213.805H213.812H213.82H213.827H213.834H213.842H213.849H213.856H213.863H213.871H213.878H213.885H213.892H213.899H213.906H213.913H213.92H213.927H213.934H213.941H213.948H213.955H213.962H213.969H213.975H213.982H213.989H213.996H214.002H214.009H214.016H214.022H214.029H214.035H214.042H214.048H214.055H214.061H214.068H214.074H214.081H214.087H214.093H214.1H214.106H214.112H214.118H214.124H214.131H214.137H214.143H214.149H214.155H214.161H214.167H214.173H214.179H214.185H214.191H214.197H214.203H214.209H214.215H214.22H214.226H214.232H214.238H214.243H214.249H214.255H214.26H214.266H214.271H214.277H214.283H214.288H214.294H214.299H214.304H214.31H214.315H214.321H214.326H214.331H214.336H214.342H214.347H214.352H214.357H214.363H214.368H214.373H214.378H214.383H214.388H214.393H214.398H214.403H214.408H214.413H214.418H214.423H214.427H214.432H214.437H214.442H214.447H214.451H214.456H214.461H214.465H214.47H214.475H214.479H214.484H214.488H214.493H214.497H214.502H214.506H214.511H214.515H214.519H214.524H214.528H214.532H214.537H214.541H214.545H214.549H214.553H214.558H214.562H214.566H214.57H214.574H214.578H214.582H214.586H214.59H214.594H214.598H214.602H214.606H214.61H214.613H214.617H214.621H214.625H214.629H214.632H214.636H214.64H214.643H214.647H214.65H214.654H214.658H214.661H214.665H214.668H214.672H214.675H214.679H214.682H214.685H214.689H214.692H214.695H214.699H214.702H214.705H214.708H214.712H214.715H214.718H214.721H214.724H214.727H214.73H214.733H214.736H214.739H214.742H214.745H214.748H214.751H214.754H214.757H214.76H214.763H214.765H214.768H214.771H214.774H214.776H214.779H214.782H214.784H214.787H214.79H214.792H214.795H214.797H214.8H214.802H214.805H214.807H214.81H214.812H214.815H214.817H214.819H214.822H214.824H214.826H214.828H214.831H214.833H214.835H214.837H214.839H214.842H214.844H214.846H214.848H214.85H214.852H214.854H214.856H214.858H214.86H214.862H214.864H214.866H214.867H214.869H214.871H214.873H214.875H214.877H214.878H214.88H214.882H214.883H214.885H214.887H214.888H214.89H214.891H214.893H214.895H214.896H214.898H214.899H214.9V186.938H214.899H214.898H214.896H214.895H214.893H214.891H214.89H214.888H214.887H214.885H214.883H214.882H214.88H214.878H214.877H214.875H214.873H214.871H214.869H214.867H214.866H214.864H214.862H214.86H214.858H214.856H214.854H214.852H214.85H214.848H214.846H214.844H214.842H214.839H214.837H214.835H214.833H214.831H214.828H214.826H214.824H214.822H214.819H214.817H214.815H214.812H214.81H214.807H214.805H214.802H214.8H214.797H214.795H214.792H214.79H214.787H214.784H214.782H214.779H214.776H214.774H214.771H214.768H214.765H214.763H214.76H214.757H214.754H214.751H214.748H214.745H214.742H214.739H214.736H214.733H214.73H214.727H214.724H214.721H214.718H214.715H214.712H214.708H214.705H214.702H214.699H214.695H214.692H214.689H214.685H214.682H214.679H214.675H214.672H214.668H214.665H214.661H214.658H214.654H214.65H214.647H214.643H214.64H214.636H214.632H214.629H214.625H214.621H214.617H214.613H214.61H214.606H214.602H214.598H214.594H214.59H214.586H214.582H214.578H214.574H214.57H214.566H214.562H214.558H214.553H214.549H214.545H214.541H214.537H214.532H214.528H214.524H214.519H214.515H214.511H214.506H214.502H214.497H214.493H214.488H214.484H214.479H214.475H214.47H214.465H214.461H214.456H214.451H214.447H214.442H214.437H214.432H214.427H214.423H214.418H214.413H214.408H214.403H214.398H214.393H214.388H214.383H214.378H214.373H214.368H214.363H214.357H214.352H214.347H214.342H214.336H214.331H214.326H214.321H214.315H214.31H214.304H214.299H214.294H214.288H214.283H214.277H214.271H214.266H214.26H214.255H214.249H214.243H214.238H214.232H214.226H214.22H214.215H214.209H214.203H214.197H214.191H214.185H214.179H214.173H214.167H214.161H214.155H214.149H214.143H214.137H214.131H214.124H214.118H214.112H214.106H214.1H214.093H214.087H214.081H214.074H214.068H214.061H214.055H214.048H214.042H214.035H214.029H214.022H214.016H214.009H214.002H213.996H213.989H213.982H213.975H213.969H213.962H213.955H213.948H213.941H213.934H213.927H213.92H213.913H213.906H213.899H213.892H213.885H213.878H213.871H213.863H213.856H213.849H213.842H213.834H213.827H213.82H213.812H213.805H213.798H213.79H213.783H213.775H213.768H213.76H213.753H213.745H213.737H213.73H213.722H213.714H213.706H213.699H213.691H213.683H213.675H213.667H213.659H213.652H213.644H213.636H213.628H213.62H213.611H213.603H213.595H213.587H213.579H213.571H213.562H213.554H213.546H213.538H213.529H213.521H213.513H213.504H213.496H213.487H213.479H213.47H213.462H213.453H213.444H213.436H213.427H213.418H213.41H213.401H213.392H213.383H213.375H213.366H213.357H213.348H213.339H213.33H213.321H213.312H213.303H213.294H213.285H213.275H213.266H213.257H213.248H213.239H213.229H213.22H213.211H213.201H213.192H213.183H213.173H213.164H213.154H213.145H213.135H213.125H213.116H213.106H213.096H213.087H213.077H213.067H213.057H213.048H213.038H213.028H213.018H213.008H212.998H212.988H212.978H212.968H212.958H212.948H212.938H212.928H212.917H212.907H212.897H212.887H212.876H212.866H212.856H212.845H212.835H212.824H212.814H212.803H212.793H212.782H212.772H212.761H212.75H212.74H212.729H212.718H212.707H212.697H212.686H212.675H212.664H212.653H212.642H212.631H212.62H212.609H212.598H212.587H212.576H212.565H212.553H212.542H212.531H212.52H212.508H212.497H212.486H212.474H212.463H212.451H212.44H212.428H212.417H212.405H212.394H212.382H212.37H212.359H212.347H212.335H212.323H212.311H212.3H212.288H212.276H212.264H212.252H212.24H212.228H212.216H212.204H212.192H212.179H212.167H212.155H212.143H212.13H212.118H212.106H212.093H212.081H212.069H212.056H212.044H212.031H212.019H212.006H211.993H211.981H211.968H211.955H211.943H211.93H211.917H211.904H211.891H211.878H211.865H211.853H211.84H211.827H211.813H211.8H211.787H211.774H211.761H211.748H211.735H211.721H211.708H211.695H211.681H211.668H211.654H211.641H211.627H211.614H211.6H211.587H211.573H211.56H211.546H211.532H211.518H211.505H211.491H211.477H211.463H211.449H211.435H211.421H211.407H211.393H211.379H211.365H211.351H211.337H211.323H211.308H211.294H211.28H211.266H211.251H211.237H211.222H211.208H211.193H211.179H211.164H211.15H211.135H211.121H211.106H211.091H211.076H211.062H211.047H211.032H211.017H211.002H210.987H210.972H210.957C209.172 186.938 207.308 186.512 205.948 185.112C204.589 183.713 204.418 182.04 204.418 181.138V181.137V159.919ZM210.517 179.741C210.517 179.74 210.522 179.742 210.532 179.744C210.521 179.742 210.516 179.741 210.517 179.741ZM211.582 181.145C211.582 181.143 211.582 181.141 211.582 181.137V181.137C211.582 181.143 211.582 181.145 211.582 181.146C211.582 181.146 211.582 181.145 211.582 181.145Z" fill="black"/>
<path d="M168.08 174.851L166.104 185.803V186.313M168.08 174.851L172.107 148.36H176.609L180.862 174.851M168.08 174.851H180.862M180.862 174.851L182.863 185.82V186.313" stroke="black" stroke-width="6.56716"/>
<path d="M52 145.896V166.104M52 186.313V166.104M52 166.104H66.0474M66.0474 166.104V146.142M66.0474 166.104V186.313" stroke="#020202" stroke-width="7.16418"/>
<path d="M77.3839 170.22L89.9526 170.294V159.45C89.9526 158.218 89.4104 157.232 86.2559 157.232C83.1014 157.232 80.6698 157.232 79.8483 157.232C79.6019 157.232 77.3839 157.232 77.3839 160.436C77.3839 162.999 77.3839 168.002 77.3839 170.22ZM77.3839 170.22V179.412C77.3839 180.891 77.4332 183.848 80.5877 183.848C83.7422 183.848 86.0095 183.848 86.7488 183.848C87.8167 183.93 89.7062 183.503 89.7062 181.137C89.7062 178.772 89.7062 177.276 89.7062 176.948" stroke="black" stroke-width="7.16418"/>
<path d="M131.602 170.22L144.171 170.294V159.45C144.171 158.218 143.628 157.232 140.474 157.232C137.319 157.232 134.888 157.232 134.066 157.232C133.82 157.232 131.602 157.232 131.602 160.436C131.602 162.999 131.602 168.002 131.602 170.22ZM131.602 170.22V179.412C131.602 180.891 131.651 183.848 134.806 183.848C137.96 183.848 140.227 183.848 140.967 183.848C142.035 183.93 143.924 183.503 143.924 181.137C143.924 178.772 143.924 177.276 143.924 176.948" stroke="black" stroke-width="7.16418"/>
<path d="M100.55 143.431V186.313" stroke="black" stroke-width="7.16418"/>
<path d="M122.73 155.261V156L118.047 183.355H113.858L109.422 156.246V155.261" stroke="black" stroke-width="7.16418"/>
<path d="M68.019 119.772L131.848 15.5261L195.678 119.772H68.019Z" stroke="#7D5D22" stroke-width="7.16418"/>
</svg>
